<svg xmlns="http://www.w3.org/2000/svg" width="30" height="30" viewBox="0 0 18.217 18.217">
  <path id="Path_6" data-name="Path 6" d="M26.217,17.109A9.109,9.109,0,1,1,17.109,8,9.107,9.107,0,0,1,26.217,17.109Zm-5.274-1.061L18.284,18.82V12.114a.879.879,0,0,0-.881-.881h-.588a.879.879,0,0,0-.881.881V18.82l-2.659-2.773a.882.882,0,0,0-1.26-.015l-.4.4a.878.878,0,0,0,0,1.245l4.87,4.874a.878.878,0,0,0,1.245,0L22.6,17.681a.878.878,0,0,0,0-1.245l-.4-.4A.882.882,0,0,0,20.943,16.047Z" transform="translate(-8 -8)" fill="#2e96e6"/>
</svg>
