<?xml version="1.0" encoding="utf-8"?>
<!-- Generator: Adobe Illustrator 24.1.1, SVG Export Plug-In . SVG Version: 6.00 Build 0)  -->
<svg version="1.1" id="Camada_1" xmlns="http://www.w3.org/2000/svg" xmlns:xlink="http://www.w3.org/1999/xlink" x="0px" y="0px"
	 viewBox="0 0 128 128" style="enable-background:new 0 0 128 128;" xml:space="preserve">
<path class="st0" d="M64.4,30.6c-34.4,0-51.6,25.3-51.6,33.1S30,96.9,64.4,96.9S116,71.5,116,63.7S98.8,30.6,64.4,30.6z M64.4,84
	c-11.2,0-20.3-9.1-20.3-20.3c0-11.2,9.1-20.3,20.3-20.3s20.3,9.1,20.3,20.3C84.7,74.9,75.6,84,64.4,84z M20.2,63.7
	c0-3.2,8.5-16.1,25.1-22.4C39,46.8,34.9,54.8,34.9,63.7c0,9,4,17,10.3,22.4C28.7,79.9,20.3,67,20.2,63.7z M83.5,86.1
	c6.3-5.4,10.3-13.4,10.3-22.4c0-9-4-17-10.3-22.4c16.6,6.2,25,19.1,25.1,22.4C108.6,67,100.1,79.9,83.5,86.1z M77.2,56.4
	c-0.5,3.1-3.1,5.4-6.3,5.4c-3.6,0-6.4-2.9-6.4-6.4c0-2.6,1.6-4.9,3.9-5.9C67,49.2,65.8,49,64.4,49c-8.1,0-14.7,6.6-14.7,14.7
	c0,8.1,6.6,14.7,14.7,14.7s14.7-6.6,14.7-14.7C79.1,61.1,78.4,58.6,77.2,56.4z M59.8,72.9c-1.5,0-2.8-1.2-2.8-2.8s1.2-2.8,2.8-2.8
	s2.8,1.2,2.8,2.8S61.3,72.9,59.8,72.9z M49.7,23.2c-1.7,0-3.2-1.1-3.6-2.8l-2.2-9c-0.5-2,0.7-4,2.7-4.5c2-0.5,4,0.7,4.5,2.7l2.2,9
	c0.5,2-0.7,4-2.7,4.5C50.3,23.2,50,23.2,49.7,23.2z M22.1,34.3c-1,0-2.1-0.4-2.8-1.3l-6.5-7.6c-1.3-1.5-1.1-3.9,0.4-5.2
	c1.5-1.3,3.9-1.1,5.2,0.4l6.5,7.6c1.3,1.5,1.1,3.9-0.4,5.2C23.8,34,22.9,34.3,22.1,34.3z M79.1,23.2c-0.3,0-0.6,0-0.9-0.1
	c-2-0.5-3.2-2.5-2.7-4.5l2.2-9c0.5-2,2.5-3.2,4.5-2.7c2,0.5,3.2,2.5,2.7,4.5l-2.2,9C82.3,22.1,80.8,23.2,79.1,23.2z M106.8,34.3
	c-0.8,0-1.7-0.3-2.4-0.9c-1.5-1.3-1.7-3.6-0.4-5.2l6.5-7.6c1.3-1.5,3.6-1.7,5.2-0.4c1.5,1.3,1.7,3.6,0.4,5.2l-6.5,7.6
	C108.8,33.8,107.8,34.3,106.8,34.3z M47.5,120.6c-0.3,0-0.6,0-0.9-0.1c-2-0.5-3.2-2.5-2.7-4.5l2.2-9c0.5-2,2.5-3.2,4.5-2.7
	c2,0.5,3.2,2.5,2.7,4.5l-2.2,9C50.6,119.5,49.1,120.6,47.5,120.6z M15.6,108.1c-0.8,0-1.7-0.3-2.4-0.9c-1.5-1.3-1.7-3.6-0.4-5.2
	l6.5-7.6c1.3-1.5,3.6-1.7,5.2-0.4c1.5,1.3,1.7,3.6,0.4,5.2l-6.5,7.6C17.7,107.7,16.6,108.1,15.6,108.1z M81.3,120.6
	c-1.7,0-3.2-1.1-3.6-2.8l-2.2-9c-0.5-2,0.7-4,2.7-4.5c2-0.5,4,0.7,4.5,2.7l2.2,9c0.5,2-0.7,4-2.7,4.5
	C81.9,120.5,81.6,120.6,81.3,120.6z M113.2,108.1c-1,0-2.1-0.4-2.8-1.3l-6.5-7.6c-1.3-1.5-1.1-3.9,0.4-5.2c1.5-1.3,3.9-1.1,5.2,0.4
	l6.5,7.6c1.3,1.5,1.1,3.9-0.4,5.2C114.9,107.8,114.1,108.1,113.2,108.1z"/>
</svg>
