<?xml version="1.0" encoding="utf-8"?>
<!-- Generator: Adobe Illustrator 24.1.1, SVG Export Plug-In . SVG Version: 6.00 Build 0)  -->
<svg version="1.1" id="Camada_1" xmlns="http://www.w3.org/2000/svg" xmlns:xlink="http://www.w3.org/1999/xlink" x="0px" y="0px"
	 viewBox="0 0 128 128" style="enable-background:new 0 0 128 128;" xml:space="preserve">
<path class="st0" d="M115.7,37.7c-0.1-0.2-0.3-0.5-0.4-0.7c-0.1-0.2-0.3-0.5-0.4-0.7c-0.3-0.5-0.6-1-1-1.6c-0.1-0.1-0.2-0.3-0.3-0.4
	c-0.4-0.6-0.8-1.2-1.2-1.7c-0.1-0.1-0.2-0.2-0.3-0.3c-0.4-0.6-0.8-1.1-1.3-1.7c-0.1-0.1-0.2-0.3-0.4-0.4c-0.3-0.3-0.5-0.6-0.8-1
	c-0.1-0.2-0.3-0.3-0.4-0.5c-0.3-0.3-0.5-0.6-0.8-0.9c-0.3-0.4-0.7-0.8-1.1-1.1c-0.3-0.3-0.5-0.5-0.8-0.8c-0.4-0.4-0.8-0.7-1.1-1.1
	c-0.2-0.2-0.5-0.4-0.7-0.6c-0.4-0.4-0.9-0.8-1.3-1.2c-0.2-0.1-0.4-0.3-0.5-0.4c-0.5-0.4-1-0.8-1.6-1.2c-0.1-0.1-0.2-0.1-0.3-0.2
	c-0.6-0.5-1.2-0.9-1.9-1.3c0,0-0.1,0-0.1-0.1c-0.7-0.5-1.4-0.9-2.1-1.4c-7.4-4.6-16.1-7.4-25.4-7.8c-0.2,0-0.3,0-0.5,0
	c-13.6-0.5-27.3,4-38,13.8c-1,1-1.1,2.6-0.1,3.6l4.2,4.2c1,1,2.6,1,3.6,0.1c14.1-12.6,34.8-14.1,50.4-4.4c0,0,0,0,0,0
	c0.5,0.3,1.1,0.7,1.6,1.1c0.1,0,0.1,0.1,0.2,0.1c0.6,0.4,1.2,0.8,1.7,1.3c0,0,0.1,0.1,0.1,0.1c0.5,0.4,1,0.8,1.6,1.3
	c0.2,0.1,0.3,0.3,0.4,0.4c0.4,0.3,0.8,0.7,1.2,1c0.2,0.2,0.3,0.3,0.5,0.5c0.4,0.3,0.7,0.7,1.1,1.1c0.2,0.2,0.3,0.4,0.5,0.5
	c0.3,0.3,0.6,0.7,0.9,1c0.2,0.3,0.5,0.6,0.7,0.8c0.2,0.2,0.4,0.4,0.5,0.6c0.3,0.3,0.5,0.7,0.8,1c0.1,0.2,0.3,0.4,0.4,0.6
	c0.2,0.3,0.4,0.6,0.7,1c0.2,0.2,0.3,0.5,0.5,0.7c0.1,0.2,0.2,0.3,0.3,0.5c8,12.7,8.6,28.9,1.7,42.1c-4.5,8.6-11.9,15.5-20.9,19.4
	c-0.2,0.1-0.4,0.2-0.6,0.2c-0.2,0.1-0.3,0.1-0.5,0.2c-0.5,0.2-1.1,0.4-1.6,0.6c-0.1,0-0.1,0-0.2,0.1c-4.7,1.6-9.6,2.4-14.4,2.3
	c-0.1,0-0.1,0-0.2,0c-0.6,0-1.2,0-1.9-0.1c-0.1,0-0.2,0-0.3,0c-0.6,0-1.2-0.1-1.7-0.2c-0.2,0-0.3,0-0.4-0.1
	c-0.5-0.1-1.1-0.1-1.6-0.2c-0.2,0-0.4-0.1-0.6-0.1c-0.5-0.1-0.9-0.2-1.4-0.3c-0.3-0.1-0.6-0.1-0.9-0.2c-0.4-0.1-0.7-0.2-1.1-0.3
	c-0.4-0.1-0.8-0.2-1.2-0.3c-0.2-0.1-0.5-0.1-0.7-0.2c-0.5-0.2-1.1-0.3-1.6-0.5c-0.1,0-0.2-0.1-0.3-0.1
	c-13.4-4.9-23.7-16.4-26.9-30.5h8.8c1.5,0,2.3-1.7,1.5-2.9L24,49.3c-0.9-1.3-2.7-1.3-3.6,0L6.3,70.4c-0.8,1.2,0,2.9,1.5,2.9h8.7
	c1.9,11,7.3,20.8,14.8,28.4l0,0c5.1,5.1,10.9,8.9,17.2,11.5c0,0,0,0,0,0c0.7,0.3,1.5,0.6,2.3,0.9c0.2,0.1,0.4,0.2,0.6,0.2
	c0.6,0.2,1.1,0.4,1.7,0.6c0.4,0.1,0.8,0.2,1.2,0.4c0.4,0.1,0.8,0.2,1.2,0.3c0.5,0.1,1.1,0.3,1.7,0.4c0.3,0.1,0.5,0.1,0.8,0.2
	c0.7,0.1,1.3,0.3,2,0.4c0.2,0,0.4,0.1,0.5,0.1c0.7,0.1,1.5,0.2,2.2,0.3c0.1,0,0.2,0,0.3,0c0.8,0.1,1.6,0.2,2.4,0.2
	c0.1,0,0.1,0,0.2,0c0.8,0.1,1.7,0.1,2.5,0.1c0,0,0,0,0,0c1.6,0,3.2,0,4.9-0.1c4.7-0.4,9.2-1.3,13.5-2.8c0.1,0,0.1,0,0.2-0.1
	c0.7-0.2,1.4-0.5,2-0.8c0.2-0.1,0.4-0.1,0.6-0.2c0.2-0.1,0.4-0.2,0.6-0.3c7.3-3.1,14-7.9,19.6-14.4c3.2-3.7,5.8-7.8,7.8-12
	c2.7-5.7,4.5-12,5-18.7C123.3,57,120.7,46.5,115.7,37.7z"/>
</svg>